<?xml version="1.0" encoding="utf-8"?><svg xmlns="http://www.w3.org/2000/svg" xmlns:xlink="http://www.w3.org/1999/xlink" width="1920" height="1080" preserveAspectRatio="xMidYMid" viewBox="0 0 1920 1080" style="z-index:1;display:block;background-color:rgb(80, 125, 188);animation-play-state:paused" ><g transform="translate(960,540) scale(1,-1) translate(-960,-540)" style="animation-play-state:paused" ><linearGradient id="lg-0.3578882784569679" x1="0" x2="1" y1="0" y2="0" style="animation-play-state:paused" ><stop stop-color="#f6f7f8" offset="0" style="animation-play-state:paused" ></stop>

  
<stop stop-color="#507dbc" offset="1" style="animation-play-state:paused" ></stop></linearGradient>
<path d="M 0 0 L 0 464.441 Q 240 480.35 480 463.281 T 960 518.695 T 1440 526.299 T 1920 523.627 L 1920 0 Z" fill="url(#lg-0.3578882784569679)" opacity="0.37" style="opacity:0.37;animation-play-state:paused" ></path>
<path d="M 0 0 L 0 445.937 Q 240 491.377 480 451.556 T 960 469.76 T 1440 511.677 T 1920 515.178 L 1920 0 Z" fill="url(#lg-0.3578882784569679)" opacity="0.37" style="opacity:0.37;animation-play-state:paused" ></path>
<path d="M 0 0 L 0 521.968 Q 240 544.304 480 514.309 T 960 492.403 T 1440 511.559 T 1920 490.127 L 1920 0 Z" fill="url(#lg-0.3578882784569679)" opacity="0.37" style="opacity:0.37;animation-play-state:paused" ></path>
<path d="M 0 0 L 0 474.526 Q 240 486.584 480 450.55 T 960 474.132 T 1440 469.515 T 1920 450.293 L 1920 0 Z" fill="url(#lg-0.3578882784569679)" opacity="0.37" style="opacity:0.37;animation-play-state:paused" ></path></g></svg>